<?xml version="1.0" encoding="UTF-8" standalone="no"?>
<!-- Created with Inkscape (http://www.inkscape.org/) -->

<svg
   version="1.1"
   id="svg1"
   width="256"
   height="256"
   viewBox="0 0 256 256"
   sodipodi:docname="logo.svg"
   inkscape:version="1.4.2 (ebf0e940d0, 2025-05-08)"
   inkscape:export-filename="linux-cleanerpng"
   inkscape:export-xdpi="190.8"
   inkscape:export-ydpi="190.8"
   xmlns:inkscape="http://www.inkscape.org/namespaces/inkscape"
   xmlns:sodipodi="http://sodipodi.sourceforge.net/DTD/sodipodi-0.dtd"
   xmlns="http://www.w3.org/2000/svg"
   xmlns:svg="http://www.w3.org/2000/svg">
  <defs
     id="defs1">
    <inkscape:path-effect
       effect="bspline"
       id="path-effect11"
       is_visible="true"
       lpeversion="1.3"
       weight="33.333333"
       steps="2"
       helper_size="0"
       apply_no_weight="true"
       apply_with_weight="true"
       only_selected="false"
       uniform="false" />
    <inkscape:path-effect
       effect="bspline"
       id="path-effect10"
       is_visible="true"
       lpeversion="1.3"
       weight="33.333333"
       steps="2"
       helper_size="0"
       apply_no_weight="true"
       apply_with_weight="true"
       only_selected="false"
       uniform="false" />
    <inkscape:path-effect
       effect="bspline"
       id="path-effect9"
       is_visible="true"
       lpeversion="1.3"
       weight="33.333333"
       steps="2"
       helper_size="0"
       apply_no_weight="true"
       apply_with_weight="true"
       only_selected="false"
       uniform="false" />
    <inkscape:path-effect
       effect="bspline"
       id="path-effect8"
       is_visible="true"
       lpeversion="1.3"
       weight="33.333333"
       steps="2"
       helper_size="0"
       apply_no_weight="true"
       apply_with_weight="true"
       only_selected="false"
       uniform="false" />
    <inkscape:path-effect
       effect="bspline"
       id="path-effect7"
       is_visible="true"
       lpeversion="1.3"
       weight="33.333333"
       steps="2"
       helper_size="0"
       apply_no_weight="true"
       apply_with_weight="true"
       only_selected="false"
       uniform="false" />
    <inkscape:path-effect
       effect="bspline"
       id="path-effect6"
       is_visible="true"
       lpeversion="1.3"
       weight="33.333333"
       steps="2"
       helper_size="0"
       apply_no_weight="true"
       apply_with_weight="true"
       only_selected="false"
       uniform="false" />
    <inkscape:path-effect
       effect="bspline"
       id="path-effect5"
       is_visible="true"
       lpeversion="1.3"
       weight="33.333333"
       steps="2"
       helper_size="0"
       apply_no_weight="true"
       apply_with_weight="true"
       only_selected="false"
       uniform="false" />
    <inkscape:path-effect
       effect="bspline"
       id="path-effect4"
       is_visible="true"
       lpeversion="1.3"
       weight="33.333333"
       steps="2"
       helper_size="0"
       apply_no_weight="true"
       apply_with_weight="true"
       only_selected="false"
       uniform="false" />
  </defs>
  <sodipodi:namedview
     id="namedview1"
     pagecolor="#ffffff"
     bordercolor="#999999"
     borderopacity="1"
     inkscape:showpageshadow="2"
     inkscape:pageopacity="0"
     inkscape:pagecheckerboard="0"
     inkscape:deskcolor="#d1d1d1"
     inkscape:zoom="1.66"
     inkscape:cx="108.13253"
     inkscape:cy="79.819277"
     inkscape:window-width="1118"
     inkscape:window-height="846"
     inkscape:window-x="34"
     inkscape:window-y="0"
     inkscape:window-maximized="1"
     inkscape:current-layer="g1">
    <inkscape:page
       x="0"
       y="0"
       width="256"
       height="256"
       id="page2"
       margin="0"
       bleed="0" />
  </sodipodi:namedview>
  <g
     inkscape:groupmode="layer"
     inkscape:label="Image"
     id="g1">
    <path
       style="fill:#808080;fill-opacity:1;stroke:none;stroke-width:0.3"
       d="m 209.5794,30.059096 c 0.62821,-0.503157 1.06074,0.765588 0.68587,3.000337 -0.37487,2.234749 -1.55708,5.435376 -2.85467,9.039799 -1.29759,3.604422 -2.71048,7.612416 -4.07129,10.983494 -1.3608,3.371079 -3.9777,8.83823 -6.14239,14.366686 -2.16468,5.528456 -6.49256,16.581544 -9.1013,23.325454 -2.60875,6.74391 -3.49824,9.178318 -4.57503,11.963934 -1.07679,2.78561 -2.34081,5.92225 -3.30056,7.70128 -0.95974,1.77903 -1.61516,2.20037 -1.84924,1.12357 -0.23408,-1.07681 -0.0468,-3.65166 0.93635,-7.16294 0.98316,-3.51129 2.76215,-7.958763 4.96255,-13.857713 2.2004,-5.89895 4.82207,-13.248991 8.7313,-22.729445 3.90922,-9.480453 9.10575,-21.090706 12.11603,-28.033498 3.01027,-6.942793 3.83416,-9.217802 4.46238,-9.720958 z"
       id="path11"
       inkscape:path-effect="#path-effect11"
       inkscape:original-d="m 209.77509,28.287197 c 0.43252,1.268743 0.86505,2.537486 1.29757,3.806229 -1.18226,3.200756 -2.36447,6.401384 -3.54671,9.602076 -1.41294,4.008154 -2.82583,8.016147 -4.23875,12.024221 -1.29761,2.739386 -5.22317,10.940564 -3.92559,8.201233 -4.30659,11.065832 -8.64585,22.114463 -12.98521,33.163314 -0.88953,2.434505 -1.77902,4.868914 -2.66853,7.30337 -1.26408,3.13677 -2.52809,6.27341 -3.79214,9.41011 -0.65544,0.42136 -1.31086,0.8427 -1.96629,1.26405 0.18727,-2.57496 0.37453,-5.14981 0.5618,-7.72472 1.77906,-4.44766 3.55805,-8.895132 5.33707,-13.342698 2.62178,-7.350334 5.24345,-14.700375 7.86517,-22.050562 5.19674,-11.610719 10.39326,-23.220974 15.58989,-34.83146 0.82392,-2.2751 1.64781,-4.550109 2.47172,-6.825163 z" />
    <rect
       style="fill:#0044aa;stroke:#1d3c6b;stroke-width:0.310197"
       id="rect1"
       width="238.58351"
       height="244.50945"
       x="8.9205208"
       y="7.6468902" />
    <path
       style="fill:#4d4d4d;fill-opacity:1;stroke:none;stroke-width:0.3"
       d="m 193.27702,161.89722 c -0.2464,1.77754 -1.30236,4.83984 -2.76313,8.44777 -1.46078,3.60793 -3.32628,7.76131 -4.99824,11.66842 -1.67196,3.90711 -3.15028,7.56772 -5.33264,11.70364 -2.18236,4.13591 -5.06861,8.74687 -8.79974,13.79796 -3.73113,5.0511 -8.30689,10.54201 -12.72439,14.37871 -4.4175,3.8367 -8.67648,6.01899 -12.49559,7.30375 -3.81911,1.28476 -7.19814,1.67194 -10.10207,1.86554 -2.90393,0.19359 -5.3326,0.19359 -6.58216,0.12319 -1.24957,-0.0704 -1.31996,-0.21119 -1.02077,-0.65118 0.2992,-0.44 0.96797,-1.17916 1.16156,-1.61915 0.19359,-0.43999 -0.088,-0.58078 -0.73918,-0.43998 -0.65119,0.1408 -1.67194,0.56318 -2.81592,1.10877 -1.14397,0.54559 -2.41111,1.21435 -5.26226,1.67194 -2.85115,0.45759 -7.28612,0.70398 -9.60925,0.82717 -2.32313,0.1232 -2.53432,0.1232 -2.42872,-0.49279 0.10561,-0.616 0.52798,-1.84793 0.98557,-2.71031 0.45759,-0.86238 0.95037,-1.35515 0.96796,-2.09434 0.0176,-0.73918 -0.43998,-1.72473 -1.68956,-1.77752 -1.24958,-0.0528 -3.29107,0.82716 -5.33262,1.28475 -2.04156,0.45759 -4.083058,0.49278 -6.054214,0.12319 -1.971155,-0.3696 -3.871858,-1.14396 -6.529407,-2.83353 -2.657549,-1.68957 -6.071773,-4.29424 -7.778917,-5.94859 -1.707144,-1.65436 -1.707144,-2.35832 -1.443147,-2.76311 0.263997,-0.40479 0.791968,-0.51038 1.759951,-1.16157 0.967982,-0.65119 2.375911,-1.84793 2.88629,-3.0447 0.51038,-1.19678 0.123203,-2.39351 -1.407976,-2.8159 -1.531179,-0.42238 -4.20624,-0.0704 -6.335787,0.1056 -2.129548,0.17599 -3.713466,0.17599 -5.438228,-0.528 -1.724762,-0.70399 -3.590266,-2.11192 -6.459014,-4.80468 -2.868747,-2.69275 -6.740546,-6.67014 -10.242866,-11.36924 -3.50232,-4.69911 -6.634958,-10.11963 -8.394905,-13.97393 -1.759947,-3.8543 -2.147126,-6.14218 -1.971124,-7.26854 0.176002,-1.12636 0.915164,-1.09117 1.759947,-0.0704 0.844783,1.02079 1.795135,3.02709 3.625502,6.17743 1.830368,3.15034 4.540628,7.44452 7.708561,11.19323 3.167934,3.74871 6.793344,6.95174 11.263656,9.32768 4.470311,2.37594 9.785234,3.92466 13.357938,4.69903 3.572704,0.77438 5.403009,0.77438 6.30058,0.96798 0.89757,0.1936 0.862373,0.58078 0.387179,1.49597 -0.475193,0.91518 -1.390344,2.3583 -1.812731,4.20627 -0.422387,1.84796 -0.351991,4.10064 0.457599,5.579 0.809589,1.47836 2.358311,2.18232 5.596656,2.63991 3.238344,0.45759 8.166087,0.66878 11.773997,-2e-5 3.60791,-0.66879 5.89579,-2.21751 6.91655,-1.40791 1.02077,0.80961 0.77438,3.97745 0.35199,5.931 -0.4224,1.95354 -1.02076,2.6927 0.36962,2.95669 1.39039,0.26399 4.76942,0.0528 7.77895,-0.59839 3.00953,-0.65119 5.64939,-1.74233 8.55333,-1.61912 2.90394,0.1232 6.07177,1.46073 9.6973,1.02073 3.62552,-0.44001 7.70851,-2.65749 13.886,-8.395 6.17748,-5.73751 14.44905,-14.99463 19.13051,-21.29526 4.68147,-6.30064 5.77261,-9.64446 7.63818,-13.76278 1.86556,-4.11832 4.50542,-9.01086 6.33578,-12.00277 1.83035,-2.99192 2.8511,-4.08307 3.55508,-5.08624 0.70398,-1.00318 1.09115,-1.91833 1.56635,-2.12952 0.47519,-0.21119 1.03836,0.28159 0.79197,2.05913 z"
       id="path9"
       inkscape:path-effect="#path-effect9"
       inkscape:original-d="m 194.08659,160.61246 c -1.05597,3.0623 -2.11193,6.1246 -3.1679,9.18691 -1.86558,4.15355 -3.73108,8.30693 -5.59662,12.4604 -1.47838,3.66075 -2.95671,7.32136 -4.43506,10.98205 -2.88636,4.61114 -5.77261,9.2221 -8.65892,13.83315 -4.57595,5.49114 -9.15171,10.98205 -13.72756,16.47308 -4.25915,2.18237 -8.51813,4.36466 -12.77719,6.54699 -3.37916,0.38719 -6.75819,0.77437 -10.13728,1.16156 -2.42877,0 -4.85744,0 -7.28617,0 -0.0704,-0.1408 -0.14079,-0.28159 -0.21119,-0.42239 0.66879,-0.73919 1.33756,-1.47835 2.00634,-2.21753 -0.2816,-0.14079 -0.56319,-0.28159 -0.84478,-0.42238 -1.02078,0.42239 -2.04153,0.84477 -3.0623,1.26716 -1.26718,0.66879 -2.53432,1.33755 -3.80148,2.00633 -4.43514,0.2464 -8.87011,0.49279 -13.30517,0.73918 -0.2112,0 -0.42239,0 -0.63358,0 0.42239,-1.23199 0.84477,-2.46392 1.26716,-3.69588 0.49279,-0.4928 0.98557,-0.98557 1.47835,-1.47836 -0.45759,-0.98558 -0.91517,-1.97113 -1.37275,-2.9567 -2.04158,0.87999 -4.08307,1.75994 -6.12461,2.63992 -2.04157,0.0352 -4.083068,0.0704 -6.124602,0.10559 -1.900777,-0.77439 -3.801479,-1.54875 -5.702218,-2.32312 -3.414359,-2.60477 -6.828581,-5.20944 -10.242872,-7.81415 0,-0.704 0,-1.40796 0,-2.11194 0.527994,-0.1056 1.055966,-0.21119 1.583949,-0.31679 1.407983,-1.19678 2.81591,-2.39352 4.223865,-3.59028 -0.387195,-1.19679 -0.774375,-2.39352 -1.161563,-3.59029 -2.675168,0.352 -5.350229,0.70398 -8.025343,1.05597 -1.583981,0 -3.167899,0 -4.751848,0 -1.865577,-1.40798 -3.73108,-2.81591 -5.596621,-4.22387 -3.871953,-3.97755 -7.743752,-7.95494 -11.615628,-11.93241 -3.132762,-5.42074 -6.2654,-10.84126 -9.398099,-16.26188 -0.387196,-2.28798 -0.774376,-4.57586 -1.161563,-6.86378 0.739191,0.0352 1.478353,0.0704 2.217529,0.10559 0.950388,2.00638 1.900739,4.01268 2.851109,6.01901 2.710367,4.29435 5.420626,8.58853 8.130939,12.88279 3.625557,3.20316 7.250968,6.40619 10.876452,9.60929 5.315137,1.54878 10.63006,3.0975 15.94509,4.64625 1.830378,0 3.660683,0 5.491024,0 -0.0352,0.3872 -0.0704,0.77438 -0.105596,1.16157 -0.915189,1.44318 -1.830342,2.8863 -2.745512,4.32946 0.0704,2.25277 0.140795,4.50545 0.211193,6.75818 1.548781,0.70399 3.097501,1.40796 4.646251,2.11193 4.927941,0.2112 9.855684,0.42239 14.783524,0.63358 2.28798,-1.54878 4.57586,-3.0975 6.86378,-4.64625 -0.24639,3.16796 -0.49278,6.3358 -0.73917,9.5037 -0.5984,0.73919 -1.19676,1.47835 -1.79515,2.21753 3.37916,-0.2112 6.75819,-0.42239 10.13728,-0.63358 2.63997,-1.09119 5.27983,-2.18233 7.91975,-3.2735 3.16796,1.33759 6.33579,2.67512 9.50369,4.01267 4.08315,-2.21757 8.16614,-4.43506 12.24921,-6.65258 8.2719,-9.25749 16.54347,-18.51461 24.81521,-27.77192 1.09118,-3.34396 2.18233,-6.68778 3.27349,-10.03167 2.63997,-4.89275 5.27983,-9.78529 7.91975,-14.67793 1.02079,-1.09119 2.04153,-2.18234 3.0623,-3.2735 0.3872,-0.91519 0.77438,-1.83034 1.16156,-2.74551 0.5632,0.49279 1.12637,0.98557 1.68955,1.47835 z" />
    <path
       style="fill:#2ad4ff;stroke:none;stroke-width:0.3"
       d="m 200.91146,21.137154 c -1.77952,1.605903 -4.21007,4.817706 -10.67709,17.187498 -6.46701,12.369793 -16.97048,33.89757 -22.87326,46.267362 -5.90277,12.369792 -7.20486,15.581596 -8.50694,18.793406 -6.51042,-2.86458 -13.02084,-5.729171 -17.27433,-7.118059 -4.25349,-1.388887 -6.24998,-1.302083 -7.9427,-0.390609 -1.69272,0.911475 -3.08158,2.647553 -5.07814,5.425368 -1.99655,2.77782 -4.60067,6.59719 -6.5538,9.33158 -1.95314,2.73439 -3.2552,4.38366 -3.90624,5.38193 -0.65104,0.99827 -0.65104,1.34548 1.90978,3.21183 2.56081,1.86636 7.68223,5.2517 13.45487,9.2014 5.77263,3.9497 12.19611,8.4635 18.14235,12.49999 5.94623,4.0365 11.41487,7.59546 16.92708,10.02602 5.51221,2.43057 11.06765,3.73263 15.45137,4.47048 4.38371,0.73785 7.59545,0.91146 9.24476,0.99826 1.6493,0.0868 1.73611,0.0868 2.65685,-5.07514 0.92073,-5.16195 2.6753,-15.48523 3.50451,-21.28896 0.82921,-5.80373 0.73296,-7.08724 -1.6201,-8.78307 -2.35306,-1.69584 -6.96274,-3.80383 -10.67198,-5.55848 -3.70924,-1.75465 -6.51783,-3.15585 -7.92215,-3.80381 -1.40433,-0.64795 -1.40433,-0.54262 3.77614,-13.340522 5.18047,-12.797903 15.541,-38.498008 20.98179,-52.650427 5.44078,-14.152419 5.9616,-16.7565 6.31991,-18.538246 0.35831,-1.781747 0.55408,-2.741024 0.0767,-3.826084 -0.47743,-1.08506 -1.62807,-2.295925 -2.63742,-2.988163 -1.00935,-0.692237 -1.8774,-0.865848 -2.87567,-0.952653 -0.99828,-0.0868 -2.12673,-0.0868 -3.90624,1.519099 z"
       id="path4"
       inkscape:path-effect="#path-effect4"
       inkscape:original-d="m 201.5625,19.53125 c -2.43056,3.211806 -4.86111,6.423611 -7.29167,9.635417 -10.50347,21.527778 -21.00694,43.055555 -31.51041,64.583333 -1.30208,3.211807 -2.60417,6.42361 -3.90625,9.63542 0,0 -13.02084,-5.72917 -19.53125,-8.593753 -1.99657,0.08681 -3.99306,0.173611 -5.98959,0.260416 -1.38891,1.736146 -2.77777,3.472223 -4.16666,5.208337 -2.60422,3.81952 -5.20834,7.63889 -7.8125,11.45833 -1.30211,1.64934 -2.60417,3.29861 -3.90625,4.94792 0,0.34723 0,0.69444 0,1.04166 5.12163,3.38549 10.24305,6.77084 15.36458,10.15625 6.42374,4.51398 12.84722,9.02778 19.27083,13.54167 5.46886,3.5591 10.9375,7.11806 16.40625,10.67708 5.55567,1.30211 11.11111,2.60417 16.66667,3.90625 3.21187,0.17362 6.42361,0.34723 9.63542,0.52084 0.0868,0 0.17361,0 0.26041,0 1.75467,-10.3239 3.50924,-20.64718 5.26391,-30.97106 -0.0962,-1.28358 -0.1925,-2.56709 -0.28875,-3.85068 -4.60987,-2.10808 -9.21955,-4.21607 -13.82932,-6.3241 -2.80871,-1.40127 -5.6173,-2.80247 -8.42595,-4.20371 0,0.10533 0,0.21066 0,0.31599 10.36094,-25.701135 20.72147,-51.401239 31.0822,-77.10186 0.52084,-2.604219 1.04166,-5.208299 1.5625,-7.8125 0.19577,-0.959293 0.39155,-1.918569 0.58732,-2.87784 -1.15063,-1.210847 -2.30127,-2.421713 -3.45191,-3.632577 -0.86806,-0.173612 -1.73611,-0.347222 -2.60416,-0.520833 -1.1285,0 -2.25695,0 -3.38542,0 z"
       sodipodi:nodetypes="ccccccccccccccccccccccccccc" />
    <path
       style="fill:#00aad4;stroke:none;stroke-width:0.3"
       d="m 209.55742,28.580637 c -0.56858,-0.185014 -1.62657,-1.582132 -2.92878,-2.223422 -1.30221,-0.64129 -2.84857,-0.526745 -4.62408,0.504204 -1.77551,1.030948 -3.78005,2.978216 -6.01375,6.328778 -2.2337,3.350562 -4.69642,8.10419 -7.3024,13.54526 -2.60599,5.44107 -5.35508,11.56924 -10.28069,21.993214 -4.92562,10.423973 -12.02742,25.143035 -15.63568,32.474079 -3.60825,7.33104 -3.72278,7.27377 -6.50061,6.15691 -2.77784,-1.11687 -8.21874,-3.29323 -11.74109,-4.6678 -3.52235,-1.37458 -5.12599,-1.9473 -6.64376,-2.23367 -1.51777,-0.28637 -2.94958,-0.28637 -4.3528,0.65866 -1.40322,0.94504 -2.77777,2.83504 -5.01148,5.9565 -2.23371,3.12147 -5.32643,7.47418 -6.95873,9.62195 -1.63231,2.14776 -1.80412,2.09049 -2.23368,1.83276 -0.42956,-0.25774 -1.11683,-0.71592 -1.43184,-1.17412 -0.31501,-0.45819 -0.25773,-0.91637 0.71594,-2.37688 0.97368,-1.4605 2.86367,-3.92322 4.89691,-6.64375 2.03325,-2.72054 4.20961,-5.69872 6.01374,-7.93241 1.80414,-2.233689 3.23596,-3.722781 4.61054,-4.438701 1.37458,-0.715921 2.69185,-0.658648 4.23826,-0.400912 1.54641,0.257737 3.32186,0.715917 5.64148,1.546399 2.31962,0.830482 5.18325,2.033206 7.73196,3.178694 2.5487,1.14549 4.78233,2.23367 5.95645,2.66322 1.17411,0.42955 1.28865,0.20046 5.69882,-9.049438 4.41017,-9.249898 13.11561,-27.519862 19.27257,-40.148799 6.15697,-12.628937 9.76514,-19.616196 12.17065,-23.940381 2.40551,-4.324186 3.60824,-5.985094 4.69645,-7.273763 1.08821,-1.288668 2.06185,-2.205033 3.42585,-2.694115 1.364,-0.489083 3.11823,-0.550866 4.55722,0.290904 1.43898,0.84177 2.56253,2.586972 2.96988,3.833831 0.40735,1.24686 0.0984,1.995211 -0.0956,2.882969 -0.19404,0.887759 -0.27318,1.914843 -0.84175,1.729829 z"
       id="path5"
       inkscape:path-effect="#path-effect5"
       inkscape:original-d="m 210.04685,29.792763 c -1.05801,-1.397138 -2.116,-2.794257 -3.174,-4.191388 -1.54642,0.114549 -3.09278,0.229095 -4.63917,0.343642 -2.00463,1.947347 -4.00917,3.894616 -6.01375,5.841925 -2.46282,4.753817 -4.92554,9.507445 -7.38831,14.261168 -2.7492,6.128416 -5.49829,12.256586 -8.24743,18.38488 -7.10209,14.719653 -14.20389,29.438717 -21.30584,44.15808 -0.11455,-0.0573 -0.22909,-0.11455 -0.34364,-0.17183 -5.44112,-2.17644 -10.88202,-4.3528 -16.32303,-6.52921 -1.60369,-0.57274 -3.20733,-1.14547 -4.81099,-1.71821 -1.43188,0 -2.86369,0 -4.29554,0 -1.37459,1.89007 -2.74914,3.78007 -4.12371,5.6701 -3.09284,4.3529 -6.18556,8.70562 -9.27835,13.05842 -0.17182,-0.0573 -0.34364,-0.11454 -0.51546,-0.17182 -0.6873,-0.4582 -1.37457,-0.91638 -2.06186,-1.37457 0.0573,-0.4582 0.11455,-0.91638 0.17182,-1.37457 1.89008,-2.46282 3.78007,-4.92554 5.67011,-7.38831 2.17644,-2.9783 4.3528,-5.95648 6.52921,-8.934713 1.43187,-1.489147 2.86369,-2.978236 4.29553,-4.467354 1.31732,0.05728 2.63459,0.114548 3.95189,0.171822 1.77552,0.458199 3.55097,0.91638 5.32646,1.37457 2.86375,1.202773 5.72738,2.405498 8.59107,3.608245 2.23372,1.08823 4.46735,2.17641 6.70103,3.26461 0.11455,-0.2291 0.22909,-0.45819 0.34364,-0.68729 8.70579,-18.270695 17.41122,-36.540662 26.11684,-54.810994 3.60832,-6.98754 7.21649,-13.9748 10.82474,-20.9622 1.20277,-1.660972 2.4055,-3.321878 3.60825,-4.982818 0.97367,-0.916398 1.94731,-1.83276 2.92096,-2.74914 1.75435,-0.06179 3.50858,-0.12357 5.26292,-0.185357 1.12363,1.745327 2.24718,3.49053 3.37081,5.235852 -0.30893,0.748397 -0.61785,1.496746 -0.92678,2.245142 -0.0791,1.027125 -0.15828,2.054206 -0.23742,3.081318 z"
       sodipodi:nodetypes="cccccccccccccccccccccccccccccccc" />
    <path
       style="fill:#00aad4;fill-opacity:1;stroke:none;stroke-width:0.3"
       d="m 181.52921,113.14433 c -2.14777,-0.94502 -2.14777,-0.94502 -2.14777,-0.94502 -0.45819,1.43185 -0.91638,2.86369 -0.57273,3.75144 0.34366,0.88775 1.48911,1.23138 3.92329,2.34824 2.43417,1.11686 6.15689,3.00685 9.2497,4.66781 3.09281,1.66095 5.55553,3.09277 6.72963,3.78005 1.17411,0.68728 1.05957,0.63001 1.0023,-2e-5 -0.0573,-0.63002 -0.0573,-1.83274 -0.17182,-2.77776 -0.11455,-0.94503 -0.34364,-1.6323 -1.57505,-2.60597 -1.23141,-0.97366 -3.46504,-2.23366 -6.72969,-3.80871 -3.26465,-1.57505 -7.56009,-3.46504 -9.70786,-4.41006 z"
       id="path6"
       inkscape:path-effect="#path-effect6"
       inkscape:original-d="m 179.38144,112.19931 c 0,0 0,0 0,0 0,0 -0.91638,2.86369 -1.37457,4.29554 1.1455,0.34364 2.29095,0.68728 3.43643,1.03092 3.72287,1.89008 7.44559,3.78007 11.16838,5.67011 2.46283,1.43187 4.92555,2.86368 7.38832,4.29553 -0.11455,-0.0573 -0.2291,-0.11455 -0.34364,-0.17182 0,-1.20278 0,-2.4055 0,-3.60825 -0.2291,-0.6873 -0.45819,-1.37457 -0.68729,-2.06186 -2.23372,-1.26004 -4.46735,-2.52004 -6.70103,-3.78006 -4.29562,-1.89008 -8.59106,-3.78007 -12.8866,-5.67011 z" />
    <path
       style="fill:#d4aa00;fill-opacity:1;stroke:#1d3c6b;stroke-width:0.3"
       d="m 116.39915,118.64634 c -1.6854,1.04333 -4.14661,3.71856 -6.31356,6.20654 -2.16695,2.48799 -4.03958,4.78864 -8.58754,8.80154 -4.547956,4.0129 -11.770925,9.73777 -19.341897,14.25893 -7.570972,4.52117 -15.489487,7.83839 -21.482036,10.03208 -5.99255,2.1937 -10.058815,3.26377 -12.332763,3.79882 -2.273948,0.53504 -2.755479,0.53504 -2.782226,1.68541 -0.02675,1.15038 0.401278,3.45102 2.354229,7.57093 1.95295,4.11991 5.430679,10.0588 9.202789,15.35579 3.772111,5.297 7.838378,9.95181 10.567123,12.54678 2.728745,2.59498 4.119833,3.13001 7.223146,3.47779 3.103312,0.34779 7.918625,0.5083 10.807881,0.58855 2.889255,0.0803 3.852317,0.0803 4.440869,0.0803 0.588552,0 0.802566,0 -0.535077,0.93635 -1.337643,0.93635 -4.22683,2.80897 -6.019239,4.11984 -1.79241,1.31087 -2.487951,2.05991 -2.407687,2.75548 0.08026,0.69557 0.936321,1.33761 2.755503,2.59498 1.819182,1.25738 4.601362,3.13 7.249862,4.68164 2.648501,1.55165 5.163165,2.78223 7.865174,3.31727 2.702009,0.53504 5.591199,0.37453 7.570879,-0.26753 1.97967,-0.64207 3.04974,-1.76564 4.03959,-2.916 0.98984,-1.15036 1.8994,-2.32743 2.40769,-2.88923 0.5083,-0.5618 0.6153,-0.5083 0.24076,0.50831 -0.37454,1.01661 -1.23059,2.99624 -2.05992,5.00268 -0.82933,2.00644 -1.63188,4.03957 -2.03317,5.16316 -0.40128,1.1236 -0.40128,1.33762 0.88286,1.28411 1.28413,-0.0535 3.8523,-0.37453 6.58106,-0.64206 2.72876,-0.26752 5.61795,-0.48153 7.89191,-1.07009 2.27396,-0.58856 3.93256,-1.55162 4.68162,-1.95291 0.74907,-0.40128 0.58856,-0.24077 0.21402,0.37454 -0.37454,0.61532 -0.96308,1.68539 -1.31086,2.16693 -0.34778,0.48154 -0.45478,0.37453 2.35426,0.16051 2.80905,-0.21402 8.53392,-0.53504 13.42963,-1.73891 4.8957,-1.20388 8.96197,-3.29052 14.17873,-7.91873 5.21675,-4.62822 11.58367,-11.79768 16.07808,-18.35205 4.4944,-6.55436 7.11607,-12.49325 9.32582,-17.17762 2.20974,-4.68438 4.0074,-8.11393 5.34468,-10.84872 1.33728,-2.73478 2.21405,-4.77456 3.13272,-6.94842 0.91867,-2.17385 1.87922,-4.48178 1.21076,-5.7064 -0.66847,-1.22463 -2.96588,-1.36587 -6.3886,-1.86453 -3.42272,-0.49867 -7.97052,-1.35473 -13.5083,-3.44144 -5.53779,-2.08671 -12.06521,-5.40393 -17.52272,-8.74799 -5.45751,-3.34407 -9.84479,-6.71479 -15.00804,-10.32639 -5.16325,-3.61159 -11.10214,-7.46384 -14.71371,-9.92506 -3.61157,-2.46122 -4.89565,-3.53129 -5.9925,-4.36062 -1.09686,-0.82932 -2.00641,-1.41786 -3.6918,-0.37452 z"
       id="path7"
       inkscape:path-effect="#path-effect7"
       inkscape:original-d="m 117.17496,117.01445 c -2.46121,2.67522 -4.92242,5.35045 -7.38363,8.02568 -1.87269,2.30074 -3.74532,4.60139 -5.61798,6.90209 -7.223254,5.7251 -14.446223,11.44997 -21.669337,17.17495 -7.918832,3.31735 -15.837346,6.63457 -23.756019,9.95185 -4.066427,1.07011 -8.132692,2.14018 -12.199037,3.21027 -0.481551,0 -0.963082,0 -1.444623,0 0.428045,2.30075 0.856073,4.60139 1.284109,6.90209 3.477865,5.93912 6.955591,11.87801 10.433387,17.81701 4.066427,4.65499 8.132691,9.3098 12.199037,13.96469 1.391146,0.53506 2.782236,1.07009 4.173355,1.60514 4.815505,0.16052 9.630818,0.32103 14.446227,0.48154 0.963102,0 1.926164,0 2.889246,0 0.214022,0 0.428036,0 0.642055,0 -2.889304,1.8727 -5.778492,3.74532 -8.667737,5.61798 -0.695573,0.74908 -1.391118,1.49812 -2.086678,2.24719 0.85609,0.64207 1.712146,1.28411 2.568219,1.92616 2.782292,1.8727 5.564473,3.74532 8.346709,5.61798 2.514764,1.23063 5.029428,2.46121 7.544141,3.69181 2.889306,-0.16051 5.778496,-0.32102 8.667736,-0.48154 1.07011,-1.12362 2.14018,-2.24719 3.21027,-3.37078 0.9096,-1.17713 1.81916,-2.3542 2.72874,-3.5313 0.10701,0.0535 0.21401,0.107 0.32102,0.16051 -0.85609,1.97971 -1.71214,3.95934 -2.56821,5.939 -0.80259,2.03322 -1.60514,4.06635 -2.40771,6.09952 0,0.21402 0,0.42804 0,0.64206 2.56827,-0.32104 5.13644,-0.64206 7.70466,-0.96309 2.8893,-0.21402 5.77849,-0.42803 8.66773,-0.64205 1.65868,-0.9631 3.31728,-1.92616 4.97593,-2.88925 -0.16052,0.16052 -0.32103,0.32103 -0.48155,0.48155 -0.58856,1.07011 -1.1771,2.14018 -1.76565,3.21027 -0.10701,-0.10701 -0.21401,-0.21402 -0.32102,-0.32103 5.7251,-0.32103 11.44997,-0.64205 17.17496,-0.96308 4.06642,-2.08672 8.13269,-4.17336 12.19903,-6.26003 6.36717,-7.16976 12.73409,-14.33922 19.10113,-21.50883 2.62177,-5.93912 5.24344,-11.87801 7.86517,-17.81702 1.79776,-3.42974 3.59542,-6.85929 5.39318,-10.28903 0.8768,-2.03983 1.75358,-4.07961 2.63035,-6.11939 0.96056,-2.30793 1.92111,-4.61586 2.8817,-6.92386 -2.29752,-0.14125 -4.59493,-0.28249 -6.89239,-0.42373 -4.54798,-0.85609 -9.09578,-1.71215 -13.64366,-2.56822 -6.52769,-3.31735 -13.05511,-6.63457 -19.58267,-9.95185 -4.38746,-3.37085 -8.77474,-6.74157 -13.16212,-10.11236 -5.93912,-3.8524 -11.87801,-7.70465 -17.81701,-11.55698 -1.28414,-1.07011 -2.56822,-2.14018 -3.85233,-3.21027 -0.90959,-0.58857 -1.81915,-1.1771 -2.72873,-1.76565 z"
       sodipodi:nodetypes="ccccccccccccsccccccccccccccccccccccccccccccccc" />
    <path
       style="fill:#808080;fill-opacity:1;stroke:none;stroke-width:0.3"
       d="m 119.74318,120.19797 c -0.69556,0.40128 -1.2306,1.25735 -0.80256,2.38096 0.42805,1.12361 1.81914,2.5147 4.36065,4.25362 2.5415,1.73892 6.23324,3.82556 10.54041,6.3938 4.30716,2.56825 9.22948,5.61795 13.00158,8.23969 3.77209,2.62175 6.39377,4.81539 9.41681,6.9556 3.02304,2.1402 6.44726,4.22684 10.08561,6.04601 3.63835,1.81917 7.4906,3.37077 11.70841,4.28891 4.2178,0.91813 8.80079,1.20276 11.61733,1.39003 2.81654,0.18727 3.86625,0.27716 4.49976,-0.23061 0.6335,-0.50776 0.85074,-1.61312 0.38845,-2.28194 -0.46228,-0.66883 -1.60403,-0.90103 -5.11774,-1.60569 -3.5137,-0.70467 -9.39909,-1.88175 -13.81324,-3.11237 -4.41416,-1.23062 -7.35685,-2.5147 -11.31623,-4.57465 -3.95939,-2.05995 -8.93514,-4.8956 -13.0321,-7.6137 -4.09695,-2.71811 -7.31477,-5.31847 -10.49829,-7.59241 -3.18351,-2.27394 -6.33268,-4.22143 -9.43216,-6.37229 -3.09949,-2.15085 -6.14919,-4.50501 -8.10214,-5.70888 -1.95294,-1.20386 -2.80899,-1.25737 -3.50455,-0.85608 z"
       id="path8"
       inkscape:path-effect="#path-effect8"
       inkscape:original-d="m 119.58266,119.74318 c -0.53504,0.85607 -1.07009,1.71214 -1.60513,2.56822 1.39114,1.39114 2.78223,2.78223 4.17335,4.17335 3.69189,2.08672 7.38363,4.17336 11.07544,6.26003 4.92252,3.04982 9.84484,6.09952 14.76726,9.14928 2.62177,2.19373 5.24345,4.38737 7.86517,6.58106 3.42436,2.08672 6.84858,4.17336 10.27287,6.26003 3.85241,1.55167 7.70466,3.10327 11.55698,4.6549 4.58329,0.28464 9.16628,0.56927 13.74959,0.85391 1.04977,0.0899 2.09948,0.17979 3.14924,0.26968 0.21725,-1.10542 0.43449,-2.21078 0.65174,-3.31621 -1.14182,-0.23221 -2.28357,-0.46442 -3.42537,-0.69663 -5.88561,-1.17712 -11.771,-2.3542 -17.6565,-3.5313 -2.94281,-1.28413 -5.8855,-2.56822 -8.82825,-3.85233 -4.97602,-2.83579 -9.95177,-5.67144 -14.92777,-8.50722 -3.21791,-2.60043 -6.43573,-5.20079 -9.65359,-7.80118 -3.14917,-1.94749 -6.29834,-3.89498 -9.44753,-5.84248 -3.04978,-2.35421 -6.09948,-4.70837 -9.14928,-7.0626 -0.85609,-0.0535 -1.71214,-0.10701 -2.56822,-0.16051 z"
       sodipodi:nodetypes="ccccccccccccccccccc" />
    <path
       style="fill:#ffcc00;fill-opacity:1;stroke:none;stroke-width:0.3"
       d="m 121.09729,125.16968 c -0.92384,-0.92383 -1.90423,-2.24359 -1.57656,-2.96436 0.32767,-0.72077 1.96331,-0.84254 2.05758,-1.55772 0.0943,-0.71519 -1.35284,-2.0237 -2.49123,-2.52843 -1.13838,-0.50473 -1.96792,-0.20562 -2.96718,0.54727 -0.99926,0.75289 -2.16816,1.9595 -4.60033,4.52365 -2.43216,2.56414 -6.12741,6.48563 -9.55882,9.70964 -3.431401,3.224 -6.598761,5.75035 -10.12444,8.33333 -3.525679,2.58298 -7.409465,5.22245 -11.576176,7.63574 -4.166711,2.41329 -8.616092,4.60028 -12.839359,6.37254 -4.223267,1.77226 -8.220171,3.1297 -11.331052,4.14781 -3.110882,1.01811 -5.335573,1.69683 -6.919293,2.16817 -1.583721,0.47134 -2.526388,0.73529 -3.035439,1.18779 -0.50905,0.45249 -0.584463,1.0935 -0.509047,1.65912 0.07541,0.56561 0.301656,1.0558 0.377069,1.3009 0.07541,0.2451 4e-6,0.2451 2.884678,-0.58448 2.884673,-0.82958 8.729201,-2.48867 14.064845,-4.61917 5.335644,-2.13049 10.162094,-4.73225 14.008277,-6.76846 3.846184,-2.03622 6.71189,-3.50677 11.161421,-6.4857 4.449531,-2.97893 10.482593,-7.46602 14.385326,-10.80315 3.90273,-3.33712 5.67494,-5.52411 7.31523,-7.33408 1.64029,-1.80997 3.14855,-3.24282 4.78884,-3.6576 1.64029,-0.41477 3.4125,0.18853 6.10862,1.71571 2.69611,1.52717 6.31595,3.9781 9.5211,6.3914 3.20516,2.4133 5.99545,4.78882 9.10635,6.73076 3.11089,1.94195 6.54219,3.45021 9.65308,5.50529 3.11089,2.05508 5.90118,4.65684 9.53999,6.97586 3.63881,2.31903 8.1259,4.35519 12.9525,6.1463 4.82659,1.79112 9.9924,3.33709 13.27296,3.99697 3.28056,0.65987 4.6757,0.43363 5.6938,0.0377 1.01811,-0.39593 1.65913,-0.96153 2.09761,-1.51072 0.43848,-0.54918 0.6744,-1.0819 -0.75853,-1.40242 -1.43292,-0.32052 -4.53452,-0.4288 -8.17817,-0.86002 -3.64365,-0.43122 -7.82908,-1.18535 -10.93996,-2.16575 -3.11088,-0.98041 -5.14704,-2.18702 -7.18326,-3.22398 -2.03622,-1.03697 -4.07238,-1.90422 -6.65537,-3.60108 -2.58299,-1.69686 -5.71264,-4.2232 -8.74811,-6.3914 -3.03548,-2.16819 -5.97659,-3.97811 -8.65384,-5.73152 -2.67725,-1.75341 -5.09048,-3.45021 -7.99398,-5.26018 -2.9035,-1.80997 -6.2971,-3.73301 -8.42757,-4.95851 -2.13048,-1.22549 -2.99773,-1.75339 -3.92156,-2.67722 z"
       id="path10"
       inkscape:path-effect="#path-effect10"
       inkscape:original-d="m 121.15385,125.56561 c -0.9804,-1.31976 -1.96079,-2.63952 -2.94118,-3.95928 1.63573,-0.12178 3.27137,-0.24355 4.9071,-0.36533 -1.44719,-1.30859 -2.8943,-2.6171 -4.34149,-3.92569 -0.82958,0.29913 -1.65912,0.59824 -2.48869,0.89736 -1.16895,1.20666 -2.33786,2.41327 -3.50678,3.61991 -3.6954,3.92165 -7.39065,7.84314 -11.08598,11.76471 -3.167482,2.52644 -6.334839,5.05279 -9.50226,7.57918 -3.883939,2.63957 -7.767722,5.27904 -11.651584,7.91855 -4.449561,2.18708 -8.898944,4.37406 -13.348416,6.56109 -3.997063,1.35749 -7.993967,2.71493 -11.99095,4.0724 -2.224781,0.67874 -4.449472,1.35746 -6.674208,2.0362 -0.942704,0.26395 -1.88537,0.5279 -2.828055,0.79185 -0.07542,0.64104 -0.150829,1.28205 -0.226244,1.92308 0.226249,0.4902 0.452489,0.98039 0.678733,1.47059 -0.07542,0 -0.150829,0 -0.226244,0 5.844762,-1.65916 11.689291,-3.31825 17.533936,-4.97738 4.826643,-2.60186 9.653092,-5.20362 14.479638,-7.80543 2.865819,-1.47062 5.731524,-2.94118 8.597286,-4.41176 6.033303,-4.48727 12.066365,-8.97436 18.099548,-13.46154 1.77228,-2.18707 3.54449,-4.37406 5.31674,-6.56109 1.50833,-1.43291 3.01659,-2.86576 4.52489,-4.29864 1.77228,0.60333 3.54449,1.20664 5.31674,1.80995 3.61998,2.45103 7.23982,4.90196 10.85973,7.35295 2.7904,2.37561 5.58069,4.75113 8.37104,7.12669 3.43144,1.50833 6.86274,3.01659 10.29412,4.52489 2.7904,2.60186 5.58069,5.20362 8.37104,7.80543 4.48727,2.03624 8.97436,4.0724 13.46154,6.1086 5.16601,1.54603 10.33182,3.092 15.49773,4.638 1.39521,-0.22624 2.79035,-0.45248 4.18552,-0.67873 0.64104,-0.56562 1.28206,-1.13122 1.92308,-1.69683 0.23594,-0.53276 0.47186,-1.06548 0.70779,-1.59824 -3.10178,-0.10828 -6.20338,-0.21656 -9.30507,-0.32484 -4.18561,-0.75416 -8.37104,-1.50829 -12.55657,-2.26244 -2.03623,-1.20666 -4.07239,-2.41327 -6.10859,-3.61991 -2.03624,-0.86729 -4.0724,-1.73454 -6.1086,-2.60181 -3.12978,-2.52645 -6.25943,-5.05279 -9.38914,-7.57919 -2.94124,-1.80999 -5.88235,-3.61991 -8.82353,-5.42986 -2.41332,-1.69687 -4.82655,-3.39367 -7.23982,-5.0905 -3.39373,-1.92311 -6.78733,-3.84615 -10.18099,-5.76923 -0.86729,-0.52791 -1.73454,-1.05581 -2.60181,-1.58371 z"
       sodipodi:nodetypes="ccccccccccccccccccccccccccccccccccccccccc" />
  </g>
  <script
     id="mesh_polyfill"
     type="text/javascript">
!function(){const t=&quot;http://www.w3.org/2000/svg&quot;,e=&quot;http://www.w3.org/1999/xlink&quot;,s=&quot;http://www.w3.org/1999/xhtml&quot;,r=2;if(document.createElementNS(t,&quot;meshgradient&quot;).x)return;const n=(t,e,s,r)=&gt;{let n=new x(.5*(e.x+s.x),.5*(e.y+s.y)),o=new x(.5*(t.x+e.x),.5*(t.y+e.y)),i=new x(.5*(s.x+r.x),.5*(s.y+r.y)),a=new x(.5*(n.x+o.x),.5*(n.y+o.y)),h=new x(.5*(n.x+i.x),.5*(n.y+i.y)),l=new x(.5*(a.x+h.x),.5*(a.y+h.y));return[[t,o,a,l],[l,h,i,r]]},o=t=&gt;{let e=t[0].distSquared(t[1]),s=t[2].distSquared(t[3]),r=.25*t[0].distSquared(t[2]),n=.25*t[1].distSquared(t[3]),o=e&gt;s?e:s,i=r&gt;n?r:n;return 18*(o&gt;i?o:i)},i=(t,e)=&gt;Math.sqrt(t.distSquared(e)),a=(t,e)=&gt;t.scale(2/3).add(e.scale(1/3)),h=t=&gt;{let e,s,r,n,o,i,a,h=new g;return t.match(/(\w+\(\s*[^)]+\))+/g).forEach(t=&gt;{let l=t.match(/[\w.-]+/g),d=l.shift();switch(d){case&quot;translate&quot;:2===l.length?e=new g(1,0,0,1,l[0],l[1]):(console.error(&quot;mesh.js: translate does not have 2 arguments!&quot;),e=new g(1,0,0,1,0,0)),h=h.append(e);break;case&quot;scale&quot;:1===l.length?s=new g(l[0],0,0,l[0],0,0):2===l.length?s=new g(l[0],0,0,l[1],0,0):(console.error(&quot;mesh.js: scale does not have 1 or 2 arguments!&quot;),s=new g(1,0,0,1,0,0)),h=h.append(s);break;case&quot;rotate&quot;:if(3===l.length&amp;&amp;(e=new g(1,0,0,1,l[1],l[2]),h=h.append(e)),l[0]){r=l[0]*Math.PI/180;let t=Math.cos(r),e=Math.sin(r);Math.abs(t)&lt;1e-16&amp;&amp;(t=0),Math.abs(e)&lt;1e-16&amp;&amp;(e=0),a=new g(t,e,-e,t,0,0),h=h.append(a)}else console.error(&quot;math.js: No argument to rotate transform!&quot;);3===l.length&amp;&amp;(e=new g(1,0,0,1,-l[1],-l[2]),h=h.append(e));break;case&quot;skewX&quot;:l[0]?(r=l[0]*Math.PI/180,n=Math.tan(r),o=new g(1,0,n,1,0,0),h=h.append(o)):console.error(&quot;math.js: No argument to skewX transform!&quot;);break;case&quot;skewY&quot;:l[0]?(r=l[0]*Math.PI/180,n=Math.tan(r),i=new g(1,n,0,1,0,0),h=h.append(i)):console.error(&quot;math.js: No argument to skewY transform!&quot;);break;case&quot;matrix&quot;:6===l.length?h=h.append(new g(...l)):console.error(&quot;math.js: Incorrect number of arguments for matrix!&quot;);break;default:console.error(&quot;mesh.js: Unhandled transform type: &quot;+d)}}),h},l=t=&gt;{let e=[],s=t.split(/[ ,]+/);for(let t=0,r=s.length-1;t&lt;r;t+=2)e.push(new x(parseFloat(s[t]),parseFloat(s[t+1])));return e},d=(t,e)=&gt;{for(let s in e)t.setAttribute(s,e[s])},c=(t,e,s,r,n)=&gt;{let o,i,a=[0,0,0,0];for(let h=0;h&lt;3;++h)e[h]&lt;t[h]&amp;&amp;e[h]&lt;s[h]||t[h]&lt;e[h]&amp;&amp;s[h]&lt;e[h]?a[h]=0:(a[h]=.5*((e[h]-t[h])/r+(s[h]-e[h])/n),o=Math.abs(3*(e[h]-t[h])/r),i=Math.abs(3*(s[h]-e[h])/n),a[h]&gt;o?a[h]=o:a[h]&gt;i&amp;&amp;(a[h]=i));return a},u=[[1,0,0,0,0,0,0,0,0,0,0,0,0,0,0,0],[0,0,0,0,1,0,0,0,0,0,0,0,0,0,0,0],[-3,3,0,0,-2,-1,0,0,0,0,0,0,0,0,0,0],[2,-2,0,0,1,1,0,0,0,0,0,0,0,0,0,0],[0,0,0,0,0,0,0,0,1,0,0,0,0,0,0,0],[0,0,0,0,0,0,0,0,0,0,0,0,1,0,0,0],[0,0,0,0,0,0,0,0,-3,3,0,0,-2,-1,0,0],[0,0,0,0,0,0,0,0,2,-2,0,0,1,1,0,0],[-3,0,3,0,0,0,0,0,-2,0,-1,0,0,0,0,0],[0,0,0,0,-3,0,3,0,0,0,0,0,-2,0,-1,0],[9,-9,-9,9,6,3,-6,-3,6,-6,3,-3,4,2,2,1],[-6,6,6,-6,-3,-3,3,3,-4,4,-2,2,-2,-2,-1,-1],[2,0,-2,0,0,0,0,0,1,0,1,0,0,0,0,0],[0,0,0,0,2,0,-2,0,0,0,0,0,1,0,1,0],[-6,6,6,-6,-4,-2,4,2,-3,3,-3,3,-2,-1,-2,-1],[4,-4,-4,4,2,2,-2,-2,2,-2,2,-2,1,1,1,1]],f=t=&gt;{let e=[];for(let s=0;s&lt;16;++s){e[s]=0;for(let r=0;r&lt;16;++r)e[s]+=u[s][r]*t[r]}return e},p=(t,e,s)=&gt;{const r=e*e,n=s*s,o=e*e*e,i=s*s*s;return t[0]+t[1]*e+t[2]*r+t[3]*o+t[4]*s+t[5]*s*e+t[6]*s*r+t[7]*s*o+t[8]*n+t[9]*n*e+t[10]*n*r+t[11]*n*o+t[12]*i+t[13]*i*e+t[14]*i*r+t[15]*i*o},y=t=&gt;{let e=[],s=[],r=[];for(let s=0;s&lt;4;++s)e[s]=[],e[s][0]=n(t[0][s],t[1][s],t[2][s],t[3][s]),e[s][1]=[],e[s][1].push(...n(...e[s][0][0])),e[s][1].push(...n(...e[s][0][1])),e[s][2]=[],e[s][2].push(...n(...e[s][1][0])),e[s][2].push(...n(...e[s][1][1])),e[s][2].push(...n(...e[s][1][2])),e[s][2].push(...n(...e[s][1][3]));for(let t=0;t&lt;8;++t){s[t]=[];for(let r=0;r&lt;4;++r)s[t][r]=[],s[t][r][0]=n(e[0][2][t][r],e[1][2][t][r],e[2][2][t][r],e[3][2][t][r]),s[t][r][1]=[],s[t][r][1].push(...n(...s[t][r][0][0])),s[t][r][1].push(...n(...s[t][r][0][1])),s[t][r][2]=[],s[t][r][2].push(...n(...s[t][r][1][0])),s[t][r][2].push(...n(...s[t][r][1][1])),s[t][r][2].push(...n(...s[t][r][1][2])),s[t][r][2].push(...n(...s[t][r][1][3]))}for(let t=0;t&lt;8;++t){r[t]=[];for(let e=0;e&lt;8;++e)r[t][e]=[],r[t][e][0]=s[t][0][2][e],r[t][e][1]=s[t][1][2][e],r[t][e][2]=s[t][2][2][e],r[t][e][3]=s[t][3][2][e]}return r};class x{constructor(t,e){this.x=t||0,this.y=e||0}toString(){return`(x=${this.x}, y=${this.y})`}clone(){return new x(this.x,this.y)}add(t){return new x(this.x+t.x,this.y+t.y)}scale(t){return void 0===t.x?new x(this.x*t,this.y*t):new x(this.x*t.x,this.y*t.y)}distSquared(t){let e=this.x-t.x,s=this.y-t.y;return e*e+s*s}transform(t){let e=this.x*t.a+this.y*t.c+t.e,s=this.x*t.b+this.y*t.d+t.f;return new x(e,s)}}class g{constructor(t,e,s,r,n,o){void 0===t?(this.a=1,this.b=0,this.c=0,this.d=1,this.e=0,this.f=0):(this.a=t,this.b=e,this.c=s,this.d=r,this.e=n,this.f=o)}toString(){return`affine: ${this.a} ${this.c} ${this.e} \n       ${this.b} ${this.d} ${this.f}`}append(t){t instanceof g||console.error(&quot;mesh.js: argument to Affine.append is not affine!&quot;);let e=this.a*t.a+this.c*t.b,s=this.b*t.a+this.d*t.b,r=this.a*t.c+this.c*t.d,n=this.b*t.c+this.d*t.d,o=this.a*t.e+this.c*t.f+this.e,i=this.b*t.e+this.d*t.f+this.f;return new g(e,s,r,n,o,i)}}class w{constructor(t,e){this.nodes=t,this.colors=e}paintCurve(t,e){if(o(this.nodes)&gt;r){const s=n(...this.nodes);let r=[[],[]],o=[[],[]];for(let t=0;t&lt;4;++t)r[0][t]=this.colors[0][t],r[1][t]=(this.colors[0][t]+this.colors[1][t])/2,o[0][t]=r[1][t],o[1][t]=this.colors[1][t];let i=new w(s[0],r),a=new w(s[1],o);i.paintCurve(t,e),a.paintCurve(t,e)}else{let s=Math.round(this.nodes[0].x);if(s&gt;=0&amp;&amp;s&lt;e){let r=4*(~~this.nodes[0].y*e+s);t[r]=Math.round(this.colors[0][0]),t[r+1]=Math.round(this.colors[0][1]),t[r+2]=Math.round(this.colors[0][2]),t[r+3]=Math.round(this.colors[0][3])}}}}class m{constructor(t,e){this.nodes=t,this.colors=e}split(){let t=[[],[],[],[]],e=[[],[],[],[]],s=[[[],[]],[[],[]]],r=[[[],[]],[[],[]]];for(let s=0;s&lt;4;++s){const r=n(this.nodes[0][s],this.nodes[1][s],this.nodes[2][s],this.nodes[3][s]);t[0][s]=r[0][0],t[1][s]=r[0][1],t[2][s]=r[0][2],t[3][s]=r[0][3],e[0][s]=r[1][0],e[1][s]=r[1][1],e[2][s]=r[1][2],e[3][s]=r[1][3]}for(let t=0;t&lt;4;++t)s[0][0][t]=this.colors[0][0][t],s[0][1][t]=this.colors[0][1][t],s[1][0][t]=(this.colors[0][0][t]+this.colors[1][0][t])/2,s[1][1][t]=(this.colors[0][1][t]+this.colors[1][1][t])/2,r[0][0][t]=s[1][0][t],r[0][1][t]=s[1][1][t],r[1][0][t]=this.colors[1][0][t],r[1][1][t]=this.colors[1][1][t];return[new m(t,s),new m(e,r)]}paint(t,e){let s,n=!1;for(let t=0;t&lt;4;++t)if((s=o([this.nodes[0][t],this.nodes[1][t],this.nodes[2][t],this.nodes[3][t]]))&gt;r){n=!0;break}if(n){let s=this.split();s[0].paint(t,e),s[1].paint(t,e)}else{new w([...this.nodes[0]],[...this.colors[0]]).paintCurve(t,e)}}}class b{constructor(t){this.readMesh(t),this.type=t.getAttribute(&quot;type&quot;)||&quot;bilinear&quot;}readMesh(t){let e=[[]],s=[[]],r=Number(t.getAttribute(&quot;x&quot;)),n=Number(t.getAttribute(&quot;y&quot;));e[0][0]=new x(r,n);let o=t.children;for(let t=0,r=o.length;t&lt;r;++t){e[3*t+1]=[],e[3*t+2]=[],e[3*t+3]=[],s[t+1]=[];let r=o[t].children;for(let n=0,o=r.length;n&lt;o;++n){let o=r[n].children;for(let r=0,i=o.length;r&lt;i;++r){let i=r;0!==t&amp;&amp;++i;let h,d=o[r].getAttribute(&quot;path&quot;),c=&quot;l&quot;;null!=d&amp;&amp;(c=(h=d.match(/\s*([lLcC])\s*(.*)/))[1]);let u=l(h[2]);switch(c){case&quot;l&quot;:0===i?(e[3*t][3*n+3]=u[0].add(e[3*t][3*n]),e[3*t][3*n+1]=a(e[3*t][3*n],e[3*t][3*n+3]),e[3*t][3*n+2]=a(e[3*t][3*n+3],e[3*t][3*n])):1===i?(e[3*t+3][3*n+3]=u[0].add(e[3*t][3*n+3]),e[3*t+1][3*n+3]=a(e[3*t][3*n+3],e[3*t+3][3*n+3]),e[3*t+2][3*n+3]=a(e[3*t+3][3*n+3],e[3*t][3*n+3])):2===i?(0===n&amp;&amp;(e[3*t+3][3*n+0]=u[0].add(e[3*t+3][3*n+3])),e[3*t+3][3*n+1]=a(e[3*t+3][3*n],e[3*t+3][3*n+3]),e[3*t+3][3*n+2]=a(e[3*t+3][3*n+3],e[3*t+3][3*n])):(e[3*t+1][3*n]=a(e[3*t][3*n],e[3*t+3][3*n]),e[3*t+2][3*n]=a(e[3*t+3][3*n],e[3*t][3*n]));break;case&quot;L&quot;:0===i?(e[3*t][3*n+3]=u[0],e[3*t][3*n+1]=a(e[3*t][3*n],e[3*t][3*n+3]),e[3*t][3*n+2]=a(e[3*t][3*n+3],e[3*t][3*n])):1===i?(e[3*t+3][3*n+3]=u[0],e[3*t+1][3*n+3]=a(e[3*t][3*n+3],e[3*t+3][3*n+3]),e[3*t+2][3*n+3]=a(e[3*t+3][3*n+3],e[3*t][3*n+3])):2===i?(0===n&amp;&amp;(e[3*t+3][3*n+0]=u[0]),e[3*t+3][3*n+1]=a(e[3*t+3][3*n],e[3*t+3][3*n+3]),e[3*t+3][3*n+2]=a(e[3*t+3][3*n+3],e[3*t+3][3*n])):(e[3*t+1][3*n]=a(e[3*t][3*n],e[3*t+3][3*n]),e[3*t+2][3*n]=a(e[3*t+3][3*n],e[3*t][3*n]));break;case&quot;c&quot;:0===i?(e[3*t][3*n+1]=u[0].add(e[3*t][3*n]),e[3*t][3*n+2]=u[1].add(e[3*t][3*n]),e[3*t][3*n+3]=u[2].add(e[3*t][3*n])):1===i?(e[3*t+1][3*n+3]=u[0].add(e[3*t][3*n+3]),e[3*t+2][3*n+3]=u[1].add(e[3*t][3*n+3]),e[3*t+3][3*n+3]=u[2].add(e[3*t][3*n+3])):2===i?(e[3*t+3][3*n+2]=u[0].add(e[3*t+3][3*n+3]),e[3*t+3][3*n+1]=u[1].add(e[3*t+3][3*n+3]),0===n&amp;&amp;(e[3*t+3][3*n+0]=u[2].add(e[3*t+3][3*n+3]))):(e[3*t+2][3*n]=u[0].add(e[3*t+3][3*n]),e[3*t+1][3*n]=u[1].add(e[3*t+3][3*n]));break;case&quot;C&quot;:0===i?(e[3*t][3*n+1]=u[0],e[3*t][3*n+2]=u[1],e[3*t][3*n+3]=u[2]):1===i?(e[3*t+1][3*n+3]=u[0],e[3*t+2][3*n+3]=u[1],e[3*t+3][3*n+3]=u[2]):2===i?(e[3*t+3][3*n+2]=u[0],e[3*t+3][3*n+1]=u[1],0===n&amp;&amp;(e[3*t+3][3*n+0]=u[2])):(e[3*t+2][3*n]=u[0],e[3*t+1][3*n]=u[1]);break;default:console.error(&quot;mesh.js: &quot;+c+&quot; invalid path type.&quot;)}if(0===t&amp;&amp;0===n||r&gt;0){let e=window.getComputedStyle(o[r]).stopColor.match(/^rgb\s*\(\s*(\d+)\s*,\s*(\d+)\s*,\s*(\d+)\s*\)$/i),a=window.getComputedStyle(o[r]).stopOpacity,h=255;a&amp;&amp;(h=Math.floor(255*a)),e&amp;&amp;(0===i?(s[t][n]=[],s[t][n][0]=Math.floor(e[1]),s[t][n][1]=Math.floor(e[2]),s[t][n][2]=Math.floor(e[3]),s[t][n][3]=h):1===i?(s[t][n+1]=[],s[t][n+1][0]=Math.floor(e[1]),s[t][n+1][1]=Math.floor(e[2]),s[t][n+1][2]=Math.floor(e[3]),s[t][n+1][3]=h):2===i?(s[t+1][n+1]=[],s[t+1][n+1][0]=Math.floor(e[1]),s[t+1][n+1][1]=Math.floor(e[2]),s[t+1][n+1][2]=Math.floor(e[3]),s[t+1][n+1][3]=h):3===i&amp;&amp;(s[t+1][n]=[],s[t+1][n][0]=Math.floor(e[1]),s[t+1][n][1]=Math.floor(e[2]),s[t+1][n][2]=Math.floor(e[3]),s[t+1][n][3]=h))}}e[3*t+1][3*n+1]=new x,e[3*t+1][3*n+2]=new x,e[3*t+2][3*n+1]=new x,e[3*t+2][3*n+2]=new x,e[3*t+1][3*n+1].x=(-4*e[3*t][3*n].x+6*(e[3*t][3*n+1].x+e[3*t+1][3*n].x)+-2*(e[3*t][3*n+3].x+e[3*t+3][3*n].x)+3*(e[3*t+3][3*n+1].x+e[3*t+1][3*n+3].x)+-1*e[3*t+3][3*n+3].x)/9,e[3*t+1][3*n+2].x=(-4*e[3*t][3*n+3].x+6*(e[3*t][3*n+2].x+e[3*t+1][3*n+3].x)+-2*(e[3*t][3*n].x+e[3*t+3][3*n+3].x)+3*(e[3*t+3][3*n+2].x+e[3*t+1][3*n].x)+-1*e[3*t+3][3*n].x)/9,e[3*t+2][3*n+1].x=(-4*e[3*t+3][3*n].x+6*(e[3*t+3][3*n+1].x+e[3*t+2][3*n].x)+-2*(e[3*t+3][3*n+3].x+e[3*t][3*n].x)+3*(e[3*t][3*n+1].x+e[3*t+2][3*n+3].x)+-1*e[3*t][3*n+3].x)/9,e[3*t+2][3*n+2].x=(-4*e[3*t+3][3*n+3].x+6*(e[3*t+3][3*n+2].x+e[3*t+2][3*n+3].x)+-2*(e[3*t+3][3*n].x+e[3*t][3*n+3].x)+3*(e[3*t][3*n+2].x+e[3*t+2][3*n].x)+-1*e[3*t][3*n].x)/9,e[3*t+1][3*n+1].y=(-4*e[3*t][3*n].y+6*(e[3*t][3*n+1].y+e[3*t+1][3*n].y)+-2*(e[3*t][3*n+3].y+e[3*t+3][3*n].y)+3*(e[3*t+3][3*n+1].y+e[3*t+1][3*n+3].y)+-1*e[3*t+3][3*n+3].y)/9,e[3*t+1][3*n+2].y=(-4*e[3*t][3*n+3].y+6*(e[3*t][3*n+2].y+e[3*t+1][3*n+3].y)+-2*(e[3*t][3*n].y+e[3*t+3][3*n+3].y)+3*(e[3*t+3][3*n+2].y+e[3*t+1][3*n].y)+-1*e[3*t+3][3*n].y)/9,e[3*t+2][3*n+1].y=(-4*e[3*t+3][3*n].y+6*(e[3*t+3][3*n+1].y+e[3*t+2][3*n].y)+-2*(e[3*t+3][3*n+3].y+e[3*t][3*n].y)+3*(e[3*t][3*n+1].y+e[3*t+2][3*n+3].y)+-1*e[3*t][3*n+3].y)/9,e[3*t+2][3*n+2].y=(-4*e[3*t+3][3*n+3].y+6*(e[3*t+3][3*n+2].y+e[3*t+2][3*n+3].y)+-2*(e[3*t+3][3*n].y+e[3*t][3*n+3].y)+3*(e[3*t][3*n+2].y+e[3*t+2][3*n].y)+-1*e[3*t][3*n].y)/9}}this.nodes=e,this.colors=s}paintMesh(t,e){let s=(this.nodes.length-1)/3,r=(this.nodes[0].length-1)/3;if(&quot;bilinear&quot;===this.type||s&lt;2||r&lt;2){let n;for(let o=0;o&lt;s;++o)for(let s=0;s&lt;r;++s){let r=[];for(let t=3*o,e=3*o+4;t&lt;e;++t)r.push(this.nodes[t].slice(3*s,3*s+4));let i=[];i.push(this.colors[o].slice(s,s+2)),i.push(this.colors[o+1].slice(s,s+2)),(n=new m(r,i)).paint(t,e)}}else{let n,o,a,h,l,d,u;const x=s,g=r;s++,r++;let w=new Array(s);for(let t=0;t&lt;s;++t){w[t]=new Array(r);for(let e=0;e&lt;r;++e)w[t][e]=[],w[t][e][0]=this.nodes[3*t][3*e],w[t][e][1]=this.colors[t][e]}for(let t=0;t&lt;s;++t)for(let e=0;e&lt;r;++e)0!==t&amp;&amp;t!==x&amp;&amp;(n=i(w[t-1][e][0],w[t][e][0]),o=i(w[t+1][e][0],w[t][e][0]),w[t][e][2]=c(w[t-1][e][1],w[t][e][1],w[t+1][e][1],n,o)),0!==e&amp;&amp;e!==g&amp;&amp;(n=i(w[t][e-1][0],w[t][e][0]),o=i(w[t][e+1][0],w[t][e][0]),w[t][e][3]=c(w[t][e-1][1],w[t][e][1],w[t][e+1][1],n,o));for(let t=0;t&lt;r;++t){w[0][t][2]=[],w[x][t][2]=[];for(let e=0;e&lt;4;++e)n=i(w[1][t][0],w[0][t][0]),o=i(w[x][t][0],w[x-1][t][0]),w[0][t][2][e]=n&gt;0?2*(w[1][t][1][e]-w[0][t][1][e])/n-w[1][t][2][e]:0,w[x][t][2][e]=o&gt;0?2*(w[x][t][1][e]-w[x-1][t][1][e])/o-w[x-1][t][2][e]:0}for(let t=0;t&lt;s;++t){w[t][0][3]=[],w[t][g][3]=[];for(let e=0;e&lt;4;++e)n=i(w[t][1][0],w[t][0][0]),o=i(w[t][g][0],w[t][g-1][0]),w[t][0][3][e]=n&gt;0?2*(w[t][1][1][e]-w[t][0][1][e])/n-w[t][1][3][e]:0,w[t][g][3][e]=o&gt;0?2*(w[t][g][1][e]-w[t][g-1][1][e])/o-w[t][g-1][3][e]:0}for(let s=0;s&lt;x;++s)for(let r=0;r&lt;g;++r){let n=i(w[s][r][0],w[s+1][r][0]),o=i(w[s][r+1][0],w[s+1][r+1][0]),c=i(w[s][r][0],w[s][r+1][0]),x=i(w[s+1][r][0],w[s+1][r+1][0]),g=[[],[],[],[]];for(let t=0;t&lt;4;++t){(d=[])[0]=w[s][r][1][t],d[1]=w[s+1][r][1][t],d[2]=w[s][r+1][1][t],d[3]=w[s+1][r+1][1][t],d[4]=w[s][r][2][t]*n,d[5]=w[s+1][r][2][t]*n,d[6]=w[s][r+1][2][t]*o,d[7]=w[s+1][r+1][2][t]*o,d[8]=w[s][r][3][t]*c,d[9]=w[s+1][r][3][t]*x,d[10]=w[s][r+1][3][t]*c,d[11]=w[s+1][r+1][3][t]*x,d[12]=0,d[13]=0,d[14]=0,d[15]=0,u=f(d);for(let e=0;e&lt;9;++e){g[t][e]=[];for(let s=0;s&lt;9;++s)g[t][e][s]=p(u,e/8,s/8),g[t][e][s]&gt;255?g[t][e][s]=255:g[t][e][s]&lt;0&amp;&amp;(g[t][e][s]=0)}}h=[];for(let t=3*s,e=3*s+4;t&lt;e;++t)h.push(this.nodes[t].slice(3*r,3*r+4));l=y(h);for(let s=0;s&lt;8;++s)for(let r=0;r&lt;8;++r)(a=new m(l[s][r],[[[g[0][s][r],g[1][s][r],g[2][s][r],g[3][s][r]],[g[0][s][r+1],g[1][s][r+1],g[2][s][r+1],g[3][s][r+1]]],[[g[0][s+1][r],g[1][s+1][r],g[2][s+1][r],g[3][s+1][r]],[g[0][s+1][r+1],g[1][s+1][r+1],g[2][s+1][r+1],g[3][s+1][r+1]]]])).paint(t,e)}}}transform(t){if(t instanceof x)for(let e=0,s=this.nodes.length;e&lt;s;++e)for(let s=0,r=this.nodes[0].length;s&lt;r;++s)this.nodes[e][s]=this.nodes[e][s].add(t);else if(t instanceof g)for(let e=0,s=this.nodes.length;e&lt;s;++e)for(let s=0,r=this.nodes[0].length;s&lt;r;++s)this.nodes[e][s]=this.nodes[e][s].transform(t)}scale(t){for(let e=0,s=this.nodes.length;e&lt;s;++e)for(let s=0,r=this.nodes[0].length;s&lt;r;++s)this.nodes[e][s]=this.nodes[e][s].scale(t)}}document.querySelectorAll(&quot;rect,circle,ellipse,path,text&quot;).forEach((r,n)=&gt;{let o=r.getAttribute(&quot;id&quot;);o||(o=&quot;patchjs_shape&quot;+n,r.setAttribute(&quot;id&quot;,o));const i=r.style.fill.match(/^url\(\s*&quot;?\s*#([^\s&quot;]+)&quot;?\s*\)/),a=r.style.stroke.match(/^url\(\s*&quot;?\s*#([^\s&quot;]+)&quot;?\s*\)/);if(i&amp;&amp;i[1]){const a=document.getElementById(i[1]);if(a&amp;&amp;&quot;meshgradient&quot;===a.nodeName){const i=r.getBBox();let l=document.createElementNS(s,&quot;canvas&quot;);d(l,{width:i.width,height:i.height});const c=l.getContext(&quot;2d&quot;);let u=c.createImageData(i.width,i.height);const f=new b(a);&quot;objectBoundingBox&quot;===a.getAttribute(&quot;gradientUnits&quot;)&amp;&amp;f.scale(new x(i.width,i.height));const p=a.getAttribute(&quot;gradientTransform&quot;);null!=p&amp;&amp;f.transform(h(p)),&quot;userSpaceOnUse&quot;===a.getAttribute(&quot;gradientUnits&quot;)&amp;&amp;f.transform(new x(-i.x,-i.y)),f.paintMesh(u.data,l.width),c.putImageData(u,0,0);const y=document.createElementNS(t,&quot;image&quot;);d(y,{width:i.width,height:i.height,x:i.x,y:i.y});let g=l.toDataURL();y.setAttributeNS(e,&quot;xlink:href&quot;,g),r.parentNode.insertBefore(y,r),r.style.fill=&quot;none&quot;;const w=document.createElementNS(t,&quot;use&quot;);w.setAttributeNS(e,&quot;xlink:href&quot;,&quot;#&quot;+o);const m=&quot;patchjs_clip&quot;+n,M=document.createElementNS(t,&quot;clipPath&quot;);M.setAttribute(&quot;id&quot;,m),M.appendChild(w),r.parentElement.insertBefore(M,r),y.setAttribute(&quot;clip-path&quot;,&quot;url(#&quot;+m+&quot;)&quot;),u=null,l=null,g=null}}if(a&amp;&amp;a[1]){const o=document.getElementById(a[1]);if(o&amp;&amp;&quot;meshgradient&quot;===o.nodeName){const i=parseFloat(r.style.strokeWidth.slice(0,-2))*(parseFloat(r.style.strokeMiterlimit)||parseFloat(r.getAttribute(&quot;stroke-miterlimit&quot;))||1),a=r.getBBox(),l=Math.trunc(a.width+i),c=Math.trunc(a.height+i),u=Math.trunc(a.x-i/2),f=Math.trunc(a.y-i/2);let p=document.createElementNS(s,&quot;canvas&quot;);d(p,{width:l,height:c});const y=p.getContext(&quot;2d&quot;);let g=y.createImageData(l,c);const w=new b(o);&quot;objectBoundingBox&quot;===o.getAttribute(&quot;gradientUnits&quot;)&amp;&amp;w.scale(new x(l,c));const m=o.getAttribute(&quot;gradientTransform&quot;);null!=m&amp;&amp;w.transform(h(m)),&quot;userSpaceOnUse&quot;===o.getAttribute(&quot;gradientUnits&quot;)&amp;&amp;w.transform(new x(-u,-f)),w.paintMesh(g.data,p.width),y.putImageData(g,0,0);const M=document.createElementNS(t,&quot;image&quot;);d(M,{width:l,height:c,x:0,y:0});let S=p.toDataURL();M.setAttributeNS(e,&quot;xlink:href&quot;,S);const k=&quot;pattern_clip&quot;+n,A=document.createElementNS(t,&quot;pattern&quot;);d(A,{id:k,patternUnits:&quot;userSpaceOnUse&quot;,width:l,height:c,x:u,y:f}),A.appendChild(M),o.parentNode.appendChild(A),r.style.stroke=&quot;url(#&quot;+k+&quot;)&quot;,g=null,p=null,S=null}}})}();
</script>
</svg>
